<?xml version="1.0" encoding="utf-8"?>
<!-- Generator: Adobe Illustrator 20.0.0, SVG Export Plug-In . SVG Version: 6.00 Build 0)  -->
<!DOCTYPE svg PUBLIC "-//W3C//DTD SVG 1.1//EN" "http://www.w3.org/Graphics/SVG/1.1/DTD/svg11.dtd">
<svg version="1.1" id="Livello_1" xmlns="http://www.w3.org/2000/svg" xmlns:xlink="http://www.w3.org/1999/xlink" x="0px" y="0px"
	 viewBox="0 0 182.1 182.9" style="enable-background:new 0 0 182.1 182.9;" xml:space="preserve">
<style type="text/css">
	.st0{fill:#F9B233;}
	.st1{fill:#EDEDED;}
	.st2{fill:#DADADA;}
	.st3{fill:#E6332A;}
	.st4{opacity:0.1;fill:url(#SVGID_1_);}
	.st5{opacity:0.1;fill:url(#SVGID_2_);}
</style>
<g>
	<g>
		<path class="st0" d="M101.2,5l-1.6-1.2c-2.4-1.5-5.3-2.5-8.3-2.5c-3.1,0-6,0.9-8.5,2.5l-1.4,1l-81.3,58l5.3,116.4l171.5,0
			l5.3-116.5L101.2,5z"/>
		<path class="st1" d="M91.2,5c2,0,3.9,0.6,5.5,1.6l1.5,1.1l78.9,57.7l0,41l-86.1,34.3L5,106.4l0-40.9L84.3,7.6l1.3-1
			C87.3,5.5,89.2,5,91.2,5 M91.2,0c-3.1,0-6,0.9-8.5,2.5l-1.4,1L0.1,62.9L0,109.7l91.1,36.3l91.1-36.3l-0.1-46.9L101.2,3.6l-1.6-1.2
			C97.2,0.9,94.3,0,91.2,0L91.2,0z"/>
		<g>
			<path class="st1" d="M172.7,181.8c-0.2,0.1-0.4,0.2-0.6,0.2C172.3,182,172.5,181.9,172.7,181.8z"/>
			<path class="st1" d="M173.9,181.3c-0.2,0.1-0.4,0.2-0.6,0.3C173.6,181.5,173.7,181.4,173.9,181.3z"/>
			<path class="st1" d="M12.1,182.6c-0.2,0-0.4-0.1-0.6-0.1C11.7,182.5,11.9,182.6,12.1,182.6z"/>
			<path class="st1" d="M10.7,182.3c-0.2-0.1-0.4-0.1-0.6-0.2C10.3,182.1,10.5,182.2,10.7,182.3z"/>
			<path class="st1" d="M13.5,182.8c-0.2,0-0.3,0-0.5-0.1C13.1,182.8,13.3,182.8,13.5,182.8z"/>
			<path class="st1" d="M170.1,182.6c-0.3,0.1-0.6,0.1-0.9,0.1C169.5,182.7,169.8,182.7,170.1,182.6z"/>
			<path class="st1" d="M171.4,182.3c-0.2,0.1-0.5,0.1-0.7,0.2C170.9,182.4,171.2,182.3,171.4,182.3z"/>
			<path class="st1" d="M168.7,182.8c-0.5,0-1,0.1-1.4,0.1C167.7,182.9,168.2,182.9,168.7,182.8z"/>
			<path class="st1" d="M91.1,122.9l-91-60C0,63.3,0,63.7,0,64V168c0,4.9,2.4,9.2,6,11.9c-0.2-0.2-0.5-0.4-0.7-0.6L91.1,122.9z"/>
			<path class="st1" d="M175.1,180.6c-0.2,0.1-0.3,0.2-0.5,0.3C174.8,180.8,174.9,180.7,175.1,180.6z"/>
			<path class="st1" d="M8.2,181.3c-0.2-0.1-0.5-0.2-0.7-0.4C7.8,181.1,8,181.2,8.2,181.3z"/>
			<path class="st1" d="M176.1,179.9c-0.1,0.1-0.2,0.2-0.4,0.3C175.9,180.1,176,180,176.1,179.9z"/>
			<path class="st1" d="M7.1,180.6c-0.2-0.1-0.5-0.3-0.7-0.4C6.6,180.4,6.8,180.5,7.1,180.6z"/>
			<path class="st1" d="M9.4,181.8c-0.2-0.1-0.4-0.2-0.7-0.3C9,181.6,9.2,181.7,9.4,181.8z"/>
			<path class="st2" d="M175.8,180.2c-0.2,0.2-0.5,0.3-0.7,0.4C175.3,180.5,175.5,180.4,175.8,180.2z"/>
			<path class="st2" d="M170.7,182.5c-0.2,0-0.4,0.1-0.6,0.1C170.3,182.6,170.5,182.5,170.7,182.5z"/>
			<path class="st2" d="M174.6,180.9c-0.2,0.1-0.4,0.2-0.7,0.4C174.2,181.2,174.4,181.1,174.6,180.9z"/>
			<path class="st2" d="M172.1,182.1c-0.2,0.1-0.4,0.1-0.6,0.2C171.6,182.2,171.9,182.1,172.1,182.1z"/>
			<path class="st2" d="M173.4,181.6c-0.2,0.1-0.4,0.2-0.7,0.3C172.9,181.7,173.2,181.6,173.4,181.6z"/>
			<path class="st2" d="M6.4,180.2c-0.1-0.1-0.2-0.2-0.4-0.3C6.1,180,6.3,180.1,6.4,180.2z"/>
			<path class="st2" d="M7.5,180.9c-0.2-0.1-0.3-0.2-0.5-0.3C7.2,180.7,7.4,180.8,7.5,180.9z"/>
			<path class="st2" d="M8.8,181.6c-0.2-0.1-0.4-0.2-0.6-0.3C8.4,181.4,8.6,181.5,8.8,181.6z"/>
			<path class="st1" d="M182.1,62.9l-91,60l85.8,56.5c-0.2,0.2-0.5,0.4-0.7,0.6c3.7-2.7,6-7,6-12V64
				C182.1,63.7,182.1,63.2,182.1,62.9z"/>
			<path class="st2" d="M10.1,182.1c-0.2-0.1-0.4-0.2-0.6-0.2C9.6,181.9,9.9,182,10.1,182.1z"/>
			<path class="st2" d="M169.2,182.7c-0.2,0-0.3,0.1-0.5,0.1C168.9,182.8,169,182.8,169.2,182.7z"/>
			<path class="st2" d="M14.9,182.9c-0.5,0-1,0-1.4-0.1C13.9,182.9,14.4,182.9,14.9,182.9z"/>
			<path class="st2" d="M11.5,182.5c-0.3-0.1-0.5-0.1-0.8-0.2C11,182.3,11.2,182.4,11.5,182.5z"/>
			<path class="st2" d="M13,182.7c-0.3,0-0.6-0.1-0.9-0.1C12.4,182.7,12.7,182.7,13,182.7z"/>
			<path class="st1" d="M91.1,122.9L5.3,179.4c0.2,0.2,0.5,0.4,0.7,0.6c0.1,0.1,0.2,0.2,0.4,0.3c0.2,0.2,0.5,0.3,0.7,0.4
				c0.2,0.1,0.3,0.2,0.5,0.3c0.2,0.1,0.4,0.2,0.7,0.4c0.2,0.1,0.4,0.2,0.6,0.3c0.2,0.1,0.4,0.2,0.7,0.3c0.2,0.1,0.4,0.2,0.6,0.2
				c0.2,0.1,0.4,0.1,0.6,0.2c0.2,0.1,0.5,0.1,0.8,0.2c0.2,0,0.4,0.1,0.6,0.1c0.3,0.1,0.6,0.1,0.9,0.1c0.2,0,0.3,0.1,0.5,0.1
				c0.5,0,1,0.1,1.4,0.1h152.4c0.5,0,1,0,1.4-0.1c0.2,0,0.3,0,0.5-0.1c0.3,0,0.6-0.1,0.9-0.1c0.2,0,0.4-0.1,0.6-0.1
				c0.3-0.1,0.5-0.1,0.7-0.2c0.2-0.1,0.4-0.1,0.6-0.2c0.2-0.1,0.4-0.2,0.6-0.2c0.2-0.1,0.4-0.2,0.7-0.3c0.2-0.1,0.4-0.2,0.6-0.3
				c0.2-0.1,0.5-0.2,0.7-0.4c0.2-0.1,0.3-0.2,0.5-0.3c0.2-0.1,0.5-0.3,0.7-0.4c0.1-0.1,0.2-0.2,0.4-0.3c0.2-0.2,0.5-0.4,0.7-0.6
				L91.1,122.9z"/>
		</g>
		<g>
			<g>
				<path class="st3" d="M89.1,28.8c0,0,0,0.1,0,0.1C89.1,28.9,89.1,28.9,89.1,28.8z"/>
				<path class="st3" d="M89.1,28.7c0-0.2,0-0.5,0-0.7c0-0.6-0.1-1.2-0.3-1.8c0,0,0-0.1,0-0.1C89,26.7,89.2,27.6,89.1,28.7z"/>
				<path class="st3" d="M112.8,46.7c-0.9,2.5-2.2,4.9-3.8,7c-2.4,3.1-5.4,5.5-8.9,7.3c1.9-3.6,3.1-7.8,3.1-12.2
					c0-0.5,0-0.9-0.1-1.4c-0.1-1.5-0.3-2.9-0.6-4.3c-0.3-1.5-0.8-2.9-1.4-4.3c-2.1-5-5.8-9.2-10.4-12c-0.6-0.4-1.3-0.8-2-1.1
					c0,0,0.1,0.2,0.2,0.5c0,0,0,0.1,0,0.1c0.2,0.6,0.3,1.2,0.3,1.8c0,0.2,0,0.5,0,0.7c0,0,0,0.1,0,0.1c0,0,0,0.1,0,0.1
					c-0.2,1.9-1,4.6-3.7,7.4C79.9,42.2,72.7,48,72.7,48s-5.1,3.9-7.6,9.3c-1.4,3.1-2.1,6.5-2.1,10c0,1.1,0.1,2.1,0.2,3.1
					c1.4,10.8,9.6,19.5,20.3,21.5c-2.6-2.5-4.4-5.7-4.9-9.4c-0.1-0.9-0.2-1.7-0.2-2.6c0-1.9,0.3-3.7,0.9-5.3c1.1-3.1,3-5.8,5.6-7.8
					c0,0.5-0.1,0.9-0.1,1.4c0,1.8,0.2,3.6,0.5,5.3c1.1,5.6,4,10.5,8,14.2c1.2,1.1,2.5,2.1,3.9,3c2.1,1.4,4.5,2.4,7,3.1
					c0.4,0.1,0.8,0.2,1.2,0.3c8.3-7,13.7-17.5,13.9-29.2C118.7,53.5,114.6,48.4,112.8,46.7z"/>
				<path class="st3" d="M89.1,28.7C89.1,28.8,89.1,28.8,89.1,28.7C89.1,28.8,89.1,28.8,89.1,28.7z"/>
				<path class="st3" d="M88.7,25.6c0.1,0.2,0.1,0.4,0.2,0.5C88.8,25.8,88.7,25.6,88.7,25.6z"/>
			</g>
		</g>
	</g>
	<linearGradient id="SVGID_1_" gradientUnits="userSpaceOnUse" x1="173.7817" y1="59.3385" x2="130.7621" y2="160.6862">
		<stop  offset="0" style="stop-color:#FFFFFF"/>
		<stop  offset="0.1198" style="stop-color:#FBFBFB"/>
		<stop  offset="0.2516" style="stop-color:#EDEDED"/>
		<stop  offset="0.3893" style="stop-color:#D8D8D7"/>
		<stop  offset="0.5308" style="stop-color:#B9B9B8"/>
		<stop  offset="0.6755" style="stop-color:#929291"/>
		<stop  offset="0.8227" style="stop-color:#626260"/>
		<stop  offset="0.9693" style="stop-color:#2A2A28"/>
		<stop  offset="1" style="stop-color:#1D1D1B"/>
	</linearGradient>
	<path class="st4" d="M182.1,62.9l-91,60l85.8,56.5c-0.2,0.2-0.5,0.4-0.7,0.6c3.7-2.7,6-7,6-12V64C182.1,63.7,182.1,63.2,182.1,62.9
		z"/>
	<linearGradient id="SVGID_2_" gradientUnits="userSpaceOnUse" x1="91.5621" y1="115.744" x2="42.3318" y2="201.0132">
		<stop  offset="0" style="stop-color:#FFFFFF"/>
		<stop  offset="0.112" style="stop-color:#FAFAFA"/>
		<stop  offset="0.2438" style="stop-color:#ECECEC"/>
		<stop  offset="0.3856" style="stop-color:#D4D4D4"/>
		<stop  offset="0.5343" style="stop-color:#B4B4B3"/>
		<stop  offset="0.6887" style="stop-color:#898988"/>
		<stop  offset="0.8452" style="stop-color:#575755"/>
		<stop  offset="1" style="stop-color:#1D1D1B"/>
	</linearGradient>
	<path class="st5" d="M91.1,122.9l-91-60C0,63.3,0,63.7,0,64V168c0,4.6,2.1,8.6,5.3,11.4l0,0c0.2,0.2,0.5,0.4,0.7,0.6
		c0.1,0.1,0.2,0.2,0.4,0.3c0.2,0.2,0.5,0.3,0.7,0.4c0.2,0.1,0.3,0.2,0.5,0.3c0.2,0.1,0.4,0.2,0.7,0.4c0.2,0.1,0.4,0.2,0.6,0.3
		c0.2,0.1,0.4,0.2,0.7,0.3c0.2,0.1,0.4,0.2,0.6,0.2c0.2,0.1,0.4,0.1,0.6,0.2c0.2,0.1,0.5,0.1,0.8,0.2c0.2,0,0.4,0.1,0.6,0.1
		c0.3,0.1,0.6,0.1,0.9,0.1c0.2,0,0.3,0.1,0.5,0.1c0.5,0,1,0.1,1.4,0.1h152.4c0.5,0,1,0,1.4-0.1c0.2,0,0.3,0,0.5-0.1
		c0.3,0,0.6-0.1,0.9-0.1c0.2,0,0.4-0.1,0.6-0.1c0.3-0.1,0.5-0.1,0.7-0.2c0.2-0.1,0.4-0.1,0.6-0.2c0.2-0.1,0.4-0.2,0.6-0.2
		c0.2-0.1,0.4-0.2,0.7-0.3c0.2-0.1,0.4-0.2,0.6-0.3c0.2-0.1,0.5-0.2,0.7-0.4c0.2-0.1,0.3-0.2,0.5-0.3c0.2-0.1,0.5-0.3,0.7-0.4
		c0.1-0.1,0.2-0.2,0.4-0.3c0.2-0.2,0.5-0.4,0.7-0.6L91.1,122.9z"/>
</g>
</svg>
